<svg width="10" height="13" viewBox="0 0 10 13" fill="none" xmlns="http://www.w3.org/2000/svg">
<path d="M8.04651 0.876345L8.10809 0.872269H8.23338L8.29496 0.876345L8.35866 0.883683L8.41387 0.891837L8.52854 0.917927L8.59968 0.939941L8.73982 0.997014L8.83538 1.05001L8.92138 1.10953L9.0095 1.18617L9.06684 1.24895L9.12417 1.32722L9.14222 1.35657L9.17089 1.4112L9.20486 1.49926L9.21548 1.54247L9.2261 1.59139L9.23034 1.63786L9.23247 1.68597V11.4699C9.23247 12.1646 8.1856 12.5274 7.50928 12.1083L7.42009 12.0463L1.04971 7.15437C0.866904 7.01397 0.757088 6.82718 0.740863 6.62904C0.724639 6.43089 0.803121 6.23501 0.961586 6.07814L1.04971 6.0015L7.42009 1.10953L7.5199 1.04186L7.60165 0.997829L7.70358 0.953802L7.7418 0.939941L7.81293 0.917927L7.9276 0.891837L7.98387 0.883683L8.04758 0.87553L8.04651 0.876345Z" fill="black"/>
</svg>
