<svg width="20" height="16" viewBox="0 0 20 16" fill="none" xmlns="http://www.w3.org/2000/svg">
<path d="M19.1663 3.90723V12.5835C19.1664 13.2849 18.8984 13.9599 18.4172 14.4702C17.936 14.9806 17.2779 15.2877 16.5777 15.3289L16.4163 15.3335H3.58301C2.88156 15.3335 2.20662 15.0655 1.69627 14.5843C1.18592 14.1031 0.878743 13.445 0.837591 12.7448L0.833008 12.5835V3.90723L9.49092 9.67948L9.59726 9.73998C9.72257 9.8012 9.8602 9.83303 9.99967 9.83303C10.1391 9.83303 10.2768 9.8012 10.4021 9.73998L10.5084 9.67948L19.1663 3.90723Z" fill="#DA0001"/>
<path d="M16.4166 0.666748C17.4066 0.666748 18.2747 1.18925 18.7587 1.97483L9.99996 7.814L1.24121 1.97483C1.4711 1.60159 1.78689 1.28871 2.16225 1.06228C2.53761 0.835853 2.96166 0.702441 3.39904 0.673165L3.58329 0.666748H16.4166Z" fill="#DA0001"/>
</svg>
