<svg width="23" height="23" viewBox="0 0 23 23" fill="none" xmlns="http://www.w3.org/2000/svg">
<path d="M6 4.625C5.63533 4.625 5.28559 4.76987 5.02773 5.02773C4.76987 5.28559 4.625 5.63533 4.625 6V17C4.625 17.3647 4.76987 17.7144 5.02773 17.9723C5.28559 18.2301 5.63533 18.375 6 18.375H17C17.3647 18.375 17.7144 18.2301 17.9723 17.9723C18.2301 17.7144 18.375 17.3647 18.375 17V16.3125C18.375 15.7655 18.5923 15.2409 18.9791 14.8541C19.3659 14.4673 19.8905 14.25 20.4375 14.25C20.9845 14.25 21.5091 14.4673 21.8959 14.8541C22.2827 15.2409 22.5 15.7655 22.5 16.3125V17C22.5 18.4587 21.9205 19.8576 20.8891 20.8891C19.8576 21.9205 18.4587 22.5 17 22.5H6C4.54131 22.5 3.14236 21.9205 2.11091 20.8891C1.07946 19.8576 0.5 18.4587 0.5 17V6C0.5 4.54131 1.07946 3.14236 2.11091 2.11091C3.14236 1.07946 4.54131 0.5 6 0.5H6.6875C7.23451 0.5 7.75911 0.717298 8.14591 1.10409C8.5327 1.49089 8.75 2.01549 8.75 2.5625C8.75 3.10951 8.5327 3.63411 8.14591 4.02091C7.75911 4.4077 7.23451 4.625 6.6875 4.625H6ZM13.5625 4.625C13.0155 4.625 12.4909 4.4077 12.1041 4.02091C11.7173 3.63411 11.5 3.10951 11.5 2.5625C11.5 2.01549 11.7173 1.49089 12.1041 1.10409C12.4909 0.717298 13.0155 0.5 13.5625 0.5H20.4375C20.9845 0.5 21.5091 0.717298 21.8959 1.10409C22.2827 1.49089 22.5 2.01549 22.5 2.5625V9.4375C22.5 9.98451 22.2827 10.5091 21.8959 10.8959C21.5091 11.2827 20.9845 11.5 20.4375 11.5C19.8905 11.5 19.3659 11.2827 18.9791 10.8959C18.5923 10.5091 18.375 9.98451 18.375 9.4375V7.54L15.02 10.895C14.629 11.2593 14.1119 11.4577 13.5776 11.4482C13.0432 11.4388 12.5334 11.2223 12.1555 10.8445C11.7777 10.4666 11.5612 9.95677 11.5518 9.42244C11.5423 8.88811 11.7407 8.37098 12.105 7.98L15.46 4.625H13.5625Z" />
</svg>
