<svg width="21" height="21" viewBox="0 0 21 21" fill="none" xmlns="http://www.w3.org/2000/svg">
<path d="M5.92543 4.68455C5.59639 4.68455 5.28083 4.81526 5.04817 5.04793C4.81551 5.28059 4.6848 5.59615 4.6848 5.92519V15.8503C4.6848 16.1793 4.81551 16.4949 5.04817 16.7275C5.28083 16.9602 5.59639 17.0909 5.92543 17.0909H15.8505C16.1795 17.0909 16.4951 16.9602 16.7278 16.7275C16.9604 16.4949 17.0911 16.1793 17.0911 15.8503V15.23C17.0911 14.7364 17.2872 14.2631 17.6362 13.9141C17.9852 13.5651 18.4585 13.369 18.9521 13.369C19.4457 13.369 19.919 13.5651 20.268 13.9141C20.617 14.2631 20.8131 14.7364 20.8131 15.23V15.8503C20.8131 17.1664 20.2902 18.4287 19.3596 19.3593C18.4289 20.29 17.1667 20.8128 15.8505 20.8128H5.92543C4.60928 20.8128 3.34704 20.29 2.41638 19.3593C1.48573 18.4287 0.962891 17.1664 0.962891 15.8503V5.92519C0.962891 4.60904 1.48573 3.3468 2.41638 2.41614C3.34704 1.48548 4.60928 0.962646 5.92543 0.962646H6.54575C7.0393 0.962646 7.51265 1.15871 7.86164 1.50771C8.21064 1.8567 8.4067 2.33004 8.4067 2.8236C8.4067 3.31715 8.21064 3.7905 7.86164 4.13949C7.51265 4.48849 7.0393 4.68455 6.54575 4.68455H5.92543ZM12.7489 4.68455C12.2554 4.68455 11.782 4.48849 11.433 4.13949C11.084 3.7905 10.888 3.31715 10.888 2.8236C10.888 2.33004 11.084 1.8567 11.433 1.50771C11.782 1.15871 12.2554 0.962646 12.7489 0.962646H18.9521C19.4457 0.962646 19.919 1.15871 20.268 1.50771C20.617 1.8567 20.8131 2.33004 20.8131 2.8236V9.02678C20.8131 9.52033 20.617 9.99367 20.268 10.3427C19.919 10.6917 19.4457 10.8877 18.9521 10.8877C18.4585 10.8877 17.9852 10.6917 17.6362 10.3427C17.2872 9.99367 17.0911 9.52033 17.0911 9.02678V7.3147L14.064 10.3418C13.7112 10.6706 13.2446 10.8495 12.7625 10.841C12.2804 10.8325 11.8204 10.6372 11.4795 10.2962C11.1385 9.95529 10.9432 9.4953 10.9347 9.01318C10.9262 8.53107 11.1051 8.06448 11.4339 7.7117L14.461 4.68455H12.7489Z" fill="white"/>
</svg>
