<svg width="30" height="30" viewBox="0 0 30 30" fill="none" xmlns="http://www.w3.org/2000/svg">
<path d="M25.5752 4.36508C24.1998 2.97624 22.5617 1.87503 20.7565 1.12562C18.9512 0.376219 17.0148 -0.00639475 15.0602 8.08427e-05C6.8702 8.08427e-05 0.195196 6.67508 0.195196 14.8651C0.195196 17.4901 0.885195 20.0401 2.1752 22.2901L0.0751953 30.0001L7.9502 27.9301C10.1252 29.1151 12.5702 29.7451 15.0602 29.7451C23.2502 29.7451 29.9252 23.0701 29.9252 14.8801C29.9252 10.9051 28.3802 7.17008 25.5752 4.36508ZM15.0602 27.2251C12.8402 27.2251 10.6652 26.6251 8.7602 25.5001L8.3102 25.2301L3.6302 26.4601L4.8752 21.9001L4.5752 21.4351C3.34152 19.4657 2.68658 17.189 2.6852 14.8651C2.6852 8.05508 8.2352 2.50508 15.0452 2.50508C18.3452 2.50508 21.4502 3.79508 23.7752 6.13508C24.9266 7.28088 25.8391 8.6439 26.4596 10.1451C27.0802 11.6463 27.3965 13.2557 27.3902 14.8801C27.4202 21.6901 21.8702 27.2251 15.0602 27.2251ZM21.8402 17.9851C21.4652 17.8051 19.6352 16.9051 19.3052 16.7701C18.9602 16.6501 18.7202 16.5901 18.4652 16.9501C18.2102 17.3251 17.5052 18.1651 17.2952 18.4051C17.0852 18.6601 16.8602 18.6901 16.4852 18.4951C16.1102 18.3151 14.9102 17.9101 13.5002 16.6501C12.3902 15.6601 11.6552 14.4451 11.4302 14.0701C11.2202 13.6951 11.4002 13.5001 11.5952 13.3051C11.7602 13.1401 11.9702 12.8701 12.1502 12.6601C12.3302 12.4501 12.4052 12.2851 12.5252 12.0451C12.6452 11.7901 12.5852 11.5801 12.4952 11.4001C12.4052 11.2201 11.6552 9.39008 11.3552 8.64008C11.0552 7.92008 10.7402 8.01008 10.5152 7.99508H9.7952C9.5402 7.99508 9.1502 8.08508 8.8052 8.46008C8.4752 8.83508 7.5152 9.73508 7.5152 11.5651C7.5152 13.3951 8.8502 15.1651 9.0302 15.4051C9.2102 15.6601 11.6552 19.4101 15.3752 21.0151C16.2602 21.4051 16.9502 21.6301 17.4902 21.7951C18.3752 22.0801 19.1852 22.0351 19.8302 21.9451C20.5502 21.8401 22.0352 21.0451 22.3352 20.1751C22.6502 19.3051 22.6502 18.5701 22.5452 18.4051C22.4402 18.2401 22.2152 18.1651 21.8402 17.9851Z" fill="white"/>
</svg>
