<svg width="28" height="18" viewBox="0 0 28 18" fill="none" xmlns="http://www.w3.org/2000/svg">
<path fill-rule="evenodd" clip-rule="evenodd" d="M0.987305 0.215881V18.0048H27.6293V0.215881H0.987305Z" fill="#2E42A5"/>
<mask id="mask0_214_689" style="mask-type:luminance" maskUnits="userSpaceOnUse" x="0" y="0" width="28" height="19">
<path fill-rule="evenodd" clip-rule="evenodd" d="M0.987305 0.215881V18.0048H27.6293V0.215881H0.987305Z" fill="white"/>
</mask>
<g mask="url(#mask0_214_689)">
<path d="M-1.97949 16.7337L3.88341 18.9417L27.7613 2.61591L30.8543 -0.664675L24.5851 -1.40218L14.8458 5.63262L7.00635 10.3734L-1.97949 16.7337Z" fill="white"/>
<path d="M-1.17773 18.2806L1.81033 19.5614L29.7436 -0.969315H25.55L-1.17773 18.2806Z" fill="#F50100"/>
<path d="M30.5955 16.7337L24.7326 18.9417L0.854688 2.61591L-2.23828 -0.664675L4.03091 -1.40218L13.7702 5.63262L21.6096 10.3734L30.5955 16.7337Z" fill="white"/>
<path d="M30.3959 17.844L27.4086 19.1248L15.5147 10.3341L11.9879 9.35274L-2.53613 -0.653557H1.65832L16.1732 9.11555L20.0288 10.2926L30.3959 17.844Z" fill="#F50100"/>
<path fill-rule="evenodd" clip-rule="evenodd" d="M17.4539 -1.26653H11.1631V6.14554H-0.654297V12.0752H11.1631V19.4873H17.4539V12.0752H29.3179V6.14554H17.4539V-1.26653Z" fill="#F50100"/>
<mask id="mask1_214_689" style="mask-type:luminance" maskUnits="userSpaceOnUse" x="-1" y="-2" width="31" height="22">
<path fill-rule="evenodd" clip-rule="evenodd" d="M17.4539 -1.26653H11.1631V6.14554H-0.654297V12.0752H11.1631V19.4873H17.4539V12.0752H29.3179V6.14554H17.4539V-1.26653Z" fill="white"/>
</mask>
<g mask="url(#mask1_214_689)">
<path d="M11.1632 -1.26653V-2.74895H9.49805V-1.26653H11.1632ZM17.454 -1.26653H19.1191V-2.74895H17.454V-1.26653ZM11.1632 6.14554V7.62795H12.8283V6.14554H11.1632ZM-0.654211 6.14554V4.66312H-2.31934V6.14554H-0.654211ZM-0.654211 12.0752H-2.31934V13.5576H-0.654211V12.0752ZM11.1632 12.0752H12.8283V10.5928H11.1632V12.0752ZM11.1632 19.4873H9.49805V20.9697H11.1632V19.4873ZM17.454 19.4873V20.9697H19.1191V19.4873H17.454ZM17.454 12.0752V10.5928H15.7889V12.0752H17.454ZM29.318 12.0752V13.5576H30.9832V12.0752H29.318ZM29.318 6.14554H30.9832V4.66312H29.318V6.14554ZM17.454 6.14554H15.7889V7.62795H17.454V6.14554ZM11.1632 0.215881H17.454V-2.74895H11.1632V0.215881ZM12.8283 6.14554V-1.26653H9.49805V6.14554H12.8283ZM-0.654211 7.62795H11.1632V4.66312H-0.654211V7.62795ZM1.01091 12.0752V6.14554H-2.31934V12.0752H1.01091ZM11.1632 10.5928H-0.654211V13.5576H11.1632V10.5928ZM12.8283 19.4873V12.0752H9.49805V19.4873H12.8283ZM17.454 18.0048H11.1632V20.9697H17.454V18.0048ZM15.7889 12.0752V19.4873H19.1191V12.0752H15.7889ZM29.318 10.5928H17.454V13.5576H29.318V10.5928ZM27.6529 6.14554V12.0752H30.9832V6.14554H27.6529ZM17.454 7.62795H29.318V4.66312H17.454V7.62795ZM15.7889 -1.26653V6.14554H19.1191V-1.26653H15.7889Z" fill="white"/>
</g>
</g>
</svg>
