<svg width="20" height="15" viewBox="0 0 20 15" fill="none" xmlns="http://www.w3.org/2000/svg">
<path d="M16.4168 4.47441H15.5002V0.193604H6.3335V13.8922H19.1668V7.04289C19.1668 5.62166 17.9385 4.47441 16.4168 4.47441ZM8.16683 1.90592H13.6668V4.47441H8.16683V1.90592ZM11.8335 11.3237H8.16683V7.04289H11.8335V11.3237ZM13.6668 11.3237C13.1627 11.3237 12.7502 10.9384 12.7502 10.4675C12.7502 9.99664 13.1627 9.61137 13.6668 9.61137C14.171 9.61137 14.5835 9.99664 14.5835 10.4675C14.5835 10.9384 14.171 11.3237 13.6668 11.3237ZM13.6668 8.75521C13.1627 8.75521 12.7502 8.36994 12.7502 7.89905C12.7502 7.42816 13.1627 7.04289 13.6668 7.04289C14.171 7.04289 14.5835 7.42816 14.5835 7.89905C14.5835 8.36994 14.171 8.75521 13.6668 8.75521ZM16.4168 11.3237C15.9127 11.3237 15.5002 10.9384 15.5002 10.4675C15.5002 9.99664 15.9127 9.61137 16.4168 9.61137C16.921 9.61137 17.3335 9.99664 17.3335 10.4675C17.3335 10.9384 16.921 11.3237 16.4168 11.3237ZM16.4168 8.75521C15.9127 8.75521 15.5002 8.36994 15.5002 7.89905C15.5002 7.42816 15.9127 7.04289 16.4168 7.04289C16.921 7.04289 17.3335 7.42816 17.3335 7.89905C17.3335 8.36994 16.921 8.75521 16.4168 8.75521ZM3.12516 3.61825C2.51738 3.61825 1.93448 3.84375 1.50471 4.24516C1.07494 4.64656 0.833496 5.19098 0.833496 5.75865V12.6079C0.833496 13.1756 1.07494 13.72 1.50471 14.1214C1.93448 14.5228 2.51738 14.7483 3.12516 14.7483C3.73295 14.7483 4.31585 14.5228 4.74562 14.1214C5.17539 13.72 5.41683 13.1756 5.41683 12.6079V5.75865C5.41683 5.47757 5.35755 5.19924 5.24239 4.93955C5.12722 4.67987 4.95842 4.44391 4.74562 4.24516C4.53282 4.0464 4.28018 3.88874 4.00215 3.78117C3.72411 3.67361 3.42611 3.61825 3.12516 3.61825Z" fill="#DA0001"/>
</svg>
