<svg width="30" height="30" viewBox="0 0 30 30" fill="none" xmlns="http://www.w3.org/2000/svg">
<path d="M16.5419 0C18.2294 0.0045 19.0859 0.0135 19.8254 0.0345L20.1164 0.045C20.4524 0.057 20.7839 0.0719999 21.1844 0.0899999C22.7804 0.165 23.8694 0.417 24.8249 0.7875C25.8149 1.1685 26.6489 1.6845 27.4829 2.517C28.2459 3.2666 28.8362 4.17371 29.2124 5.175C29.5829 6.1305 29.8349 7.2195 29.9099 8.817C29.9279 9.216 29.9429 9.5475 29.9549 9.885L29.9639 10.176C29.9864 10.914 29.9954 11.7705 29.9984 13.458L29.9999 14.577V16.542C30.0035 17.6361 29.992 18.7302 29.9654 19.824L29.9564 20.115C29.9444 20.4525 29.9294 20.784 29.9114 21.183C29.8364 22.7805 29.5814 23.868 29.2124 24.825C28.8362 25.8263 28.2459 26.7334 27.4829 27.483C26.7333 28.246 25.8262 28.8363 24.8249 29.2125C23.8694 29.583 22.7804 29.835 21.1844 29.91L20.1164 29.955L19.8254 29.964C19.0859 29.985 18.2294 29.9955 16.5419 29.9985L15.4229 30H13.4594C12.3648 30.0039 11.2702 29.9924 10.1759 29.9655L9.88488 29.9565C9.52879 29.943 9.17279 29.9275 8.81688 29.91C7.22088 29.835 6.13188 29.583 5.17488 29.2125C4.17412 28.8361 3.26754 28.2459 2.51838 27.483C1.75479 26.7336 1.16404 25.8264 0.787377 24.825C0.416877 23.8695 0.164877 22.7805 0.0898765 21.183L0.0448766 20.115L0.0373768 19.824C0.00972584 18.7302 -0.0027755 17.6361 -0.000123367 16.542V13.458C-0.00427521 12.3639 0.00672596 11.2698 0.0328767 10.176L0.0433767 9.885C0.0553767 9.5475 0.0703767 9.216 0.0883767 8.817C0.163377 7.2195 0.415377 6.132 0.785877 5.175C1.16342 4.1733 1.75521 3.26615 2.51988 2.517C3.26861 1.75432 4.17466 1.16411 5.17488 0.7875C6.13188 0.417 7.21938 0.165 8.81688 0.0899999C9.21588 0.0719999 9.54888 0.057 9.88488 0.045L10.1759 0.0359999C11.2697 0.00934906 12.3638 -0.00215205 13.4579 0.00149989L16.5419 0ZM14.9999 7.5C13.0108 7.5 11.1031 8.29018 9.69658 9.6967C8.29005 11.1032 7.49988 13.0109 7.49988 15C7.49988 16.9891 8.29005 18.8968 9.69658 20.3033C11.1031 21.7098 13.0108 22.5 14.9999 22.5C16.989 22.5 18.8967 21.7098 20.3032 20.3033C21.7097 18.8968 22.4999 16.9891 22.4999 15C22.4999 13.0109 21.7097 11.1032 20.3032 9.6967C18.8967 8.29018 16.989 7.5 14.9999 7.5ZM14.9999 10.5C15.5908 10.4999 16.176 10.6162 16.722 10.8423C17.268 11.0683 17.7641 11.3997 18.1821 11.8175C18.6 12.2353 18.9316 12.7313 19.1578 13.2772C19.384 13.8232 19.5005 14.4083 19.5006 14.9993C19.5007 15.5902 19.3844 16.1754 19.1584 16.7214C18.9323 17.2674 18.6009 17.7635 18.1831 18.1814C17.7653 18.5994 17.2693 18.9309 16.7234 19.1572C16.1775 19.3834 15.5923 19.4999 15.0014 19.5C13.8079 19.5 12.6633 19.0259 11.8194 18.182C10.9755 17.3381 10.5014 16.1935 10.5014 15C10.5014 13.8065 10.9755 12.6619 11.8194 11.818C12.6633 10.9741 13.8079 10.5 15.0014 10.5M22.8764 5.25C22.3791 5.25 21.9022 5.44754 21.5506 5.79917C21.1989 6.15081 21.0014 6.62772 21.0014 7.125C21.0014 7.62228 21.1989 8.09919 21.5506 8.45082C21.9022 8.80246 22.3791 9 22.8764 9C23.3737 9 23.8506 8.80246 24.2022 8.45082C24.5538 8.09919 24.7514 7.62228 24.7514 7.125C24.7514 6.62772 24.5538 6.15081 24.2022 5.79917C23.8506 5.44754 23.3737 5.25 22.8764 5.25Z" fill="white"/>
</svg>
