<svg width="20" height="20" viewBox="0 0 20 20" fill="none" xmlns="http://www.w3.org/2000/svg">
<path fill-rule="evenodd" clip-rule="evenodd" d="M14.1727 17.6193C12.8527 17.5739 9.11183 17.091 5.194 13.4326C1.27708 9.77341 0.760998 6.28027 0.711498 5.04655C0.638165 3.16642 2.18 1.34023 3.96108 0.627045C4.17556 0.540545 4.41043 0.507611 4.64265 0.531477C4.87487 0.555342 5.09646 0.635187 5.28566 0.763175C6.75233 1.76146 7.76433 3.27173 8.63333 4.45922C8.82453 4.72012 8.90628 5.0376 8.86301 5.35117C8.81973 5.66473 8.65445 5.95247 8.39867 6.15956L6.61025 7.40013C6.52384 7.45841 6.46302 7.54399 6.43908 7.64099C6.41514 7.73799 6.42971 7.8398 6.48008 7.92753C6.88525 8.61502 7.60575 9.63899 8.43075 10.4095C9.25575 11.1801 10.4043 11.8975 11.1917 12.3188C11.2905 12.3705 11.4067 12.385 11.5165 12.3592C11.6263 12.3334 11.7213 12.2693 11.7821 12.1801L12.9462 10.5251C13.1603 10.2596 13.476 10.0817 13.8273 10.0287C14.1786 9.97572 14.5383 10.0517 14.8309 10.2409C16.1207 11.0748 17.6258 12.0037 18.7277 13.3213C18.8758 13.4993 18.9701 13.7112 19.0005 13.9349C19.031 14.1586 18.9966 14.3858 18.9009 14.5927C18.1337 16.2648 16.1922 17.6886 14.1727 17.6193Z" fill="#DA0001"/>
</svg>
